<svg width="227" height="44" viewBox="0 0 227 44" fill="none" xmlns="http://www.w3.org/2000/svg">
<path d="M0.5 34V0.0249975H0.545L18.23 25.09L15.935 24.595L33.53 0.0249975H33.62V34H28.355V12.04L28.67 14.785L16.88 31.525H16.79L4.73 14.785L5.63 12.265V34H0.5ZM43.1396 43.18L55.7846 14.92H60.4646L48.1346 43.18H43.1396ZM48.0446 34.135L38.7746 14.92H44.5346L52.0046 31.525L48.0446 34.135ZM89.883 31.435C89.433 31.765 88.728 32.17 87.768 32.65C86.808 33.13 85.668 33.55 84.348 33.91C83.028 34.24 81.588 34.39 80.028 34.36C77.448 34.33 75.138 33.88 73.098 33.01C71.088 32.11 69.363 30.91 67.923 29.41C66.513 27.88 65.433 26.14 64.683 24.19C63.933 22.21 63.558 20.095 63.558 17.845C63.558 15.385 63.948 13.12 64.728 11.05C65.538 8.98 66.648 7.18 68.058 5.65C69.498 4.12 71.208 2.935 73.188 2.095C75.168 1.255 77.328 0.834998 79.668 0.834998C81.738 0.834998 83.598 1.12 85.248 1.69C86.898 2.26 88.278 2.89 89.388 3.58L87.273 8.575C86.433 7.975 85.383 7.39 84.123 6.82C82.863 6.25 81.438 5.965 79.848 5.965C77.928 5.965 76.143 6.49 74.493 7.54C72.873 8.56 71.568 9.94 70.578 11.68C69.588 13.42 69.093 15.385 69.093 17.575C69.093 19.825 69.543 21.835 70.443 23.605C71.343 25.345 72.618 26.725 74.268 27.745C75.948 28.735 77.898 29.23 80.118 29.23C81.828 29.23 83.313 28.975 84.573 28.465C85.863 27.925 86.883 27.325 87.633 26.665L89.883 31.435ZM103.847 34.495C102.047 34.495 100.412 34.12 98.9421 33.37C97.5021 32.62 96.3471 31.51 95.4771 30.04C94.6371 28.54 94.2171 26.68 94.2171 24.46C94.2171 22.33 94.6671 20.485 95.5671 18.925C96.4671 17.365 97.6371 16.165 99.0771 15.325C100.547 14.485 102.122 14.065 103.802 14.065C105.662 14.065 107.147 14.425 108.257 15.145C109.367 15.865 110.252 16.705 110.912 17.665L110.642 18.385L111.137 14.92H115.862V34H110.732V29.41L111.182 30.58C111.092 30.76 110.867 31.06 110.507 31.48C110.147 31.87 109.652 32.305 109.022 32.785C108.422 33.235 107.687 33.64 106.817 34C105.947 34.33 104.957 34.495 103.847 34.495ZM105.242 30.265C106.622 30.265 107.777 29.92 108.707 29.23C109.667 28.54 110.342 27.565 110.732 26.305V22.12C110.372 20.98 109.682 20.05 108.662 19.33C107.642 18.61 106.442 18.25 105.062 18.25C104.042 18.25 103.097 18.505 102.227 19.015C101.387 19.495 100.712 20.185 100.202 21.085C99.6921 21.985 99.4371 23.02 99.4371 24.19C99.4371 25.36 99.7071 26.41 100.247 27.34C100.787 28.24 101.492 28.96 102.362 29.5C103.262 30.01 104.222 30.265 105.242 30.265ZM127.411 14.92L127.816 18.79L127.636 18.475C128.356 17.095 129.331 16.015 130.561 15.235C131.821 14.455 133.276 14.065 134.926 14.065C136.486 14.065 137.791 14.425 138.841 15.145C139.921 15.835 140.596 16.84 140.866 18.16L140.641 18.295C141.421 17.005 142.426 15.985 143.656 15.235C144.886 14.455 146.176 14.065 147.526 14.065C149.416 14.065 150.916 14.59 152.026 15.64C153.136 16.69 153.706 18.07 153.736 19.78V34H148.651V21.805C148.621 20.875 148.426 20.11 148.066 19.51C147.736 18.88 147.076 18.535 146.086 18.475C145.006 18.475 144.076 18.82 143.296 19.51C142.516 20.17 141.916 21.04 141.496 22.12C141.076 23.17 140.851 24.295 140.821 25.495V34H135.691V21.805C135.661 20.875 135.451 20.11 135.061 19.51C134.671 18.88 133.981 18.535 132.991 18.475C131.971 18.475 131.071 18.82 130.291 19.51C129.511 20.17 128.911 21.04 128.491 22.12C128.101 23.2 127.906 24.325 127.906 25.495V34H122.776V14.92H127.411ZM172.266 34.495C170.946 34.495 169.671 34.225 168.441 33.685C167.211 33.115 166.236 32.335 165.516 31.345L165.741 29.77V43.18H160.656V14.56H165.066L165.786 18.925L165.291 17.575C166.251 16.555 167.391 15.715 168.711 15.055C170.031 14.395 171.546 14.065 173.256 14.065C175.026 14.065 176.616 14.485 178.026 15.325C179.466 16.165 180.591 17.365 181.401 18.925C182.211 20.455 182.616 22.285 182.616 24.415C182.616 26.515 182.166 28.315 181.266 29.815C180.366 31.315 179.136 32.47 177.576 33.28C176.016 34.09 174.246 34.495 172.266 34.495ZM171.231 30.445C172.341 30.445 173.361 30.19 174.291 29.68C175.251 29.17 176.001 28.465 176.541 27.565C177.111 26.635 177.396 25.6 177.396 24.46C177.396 23.26 177.141 22.21 176.631 21.31C176.121 20.38 175.416 19.66 174.516 19.15C173.646 18.64 172.671 18.385 171.591 18.385C170.121 18.385 168.891 18.745 167.901 19.465C166.911 20.185 166.206 21.175 165.786 22.435V26.305C166.056 27.505 166.686 28.495 167.676 29.275C168.696 30.055 169.881 30.445 171.231 30.445ZM194.11 34.81C192.37 34.81 190.93 34.285 189.79 33.235C188.65 32.155 188.05 30.775 187.99 29.095V14.92H193.12V27.25C193.18 28.21 193.435 28.975 193.885 29.545C194.365 30.115 195.13 30.415 196.18 30.445C197.17 30.445 198.04 30.145 198.79 29.545C199.57 28.915 200.17 28.06 200.59 26.98C201.04 25.9 201.265 24.67 201.265 23.29V14.92H206.395V34H201.76L201.355 29.86L201.49 30.49C200.89 31.75 199.945 32.785 198.655 33.595C197.365 34.405 195.85 34.81 194.11 34.81ZM219.107 34.405C217.637 34.405 216.242 34.15 214.922 33.64C213.632 33.1 212.537 32.35 211.637 31.39L213.797 28.51C214.637 29.29 215.477 29.875 216.317 30.265C217.157 30.655 217.937 30.85 218.657 30.85C219.497 30.85 220.217 30.7 220.817 30.4C221.447 30.07 221.762 29.545 221.762 28.825C221.762 28.225 221.552 27.76 221.132 27.43C220.712 27.07 220.172 26.785 219.512 26.575C218.852 26.335 218.162 26.11 217.442 25.9C215.792 25.39 214.562 24.64 213.752 23.65C212.942 22.63 212.537 21.475 212.537 20.185C212.537 19.195 212.777 18.25 213.257 17.35C213.767 16.42 214.547 15.655 215.597 15.055C216.677 14.455 218.027 14.155 219.647 14.155C221.087 14.155 222.347 14.32 223.427 14.65C224.507 14.95 225.512 15.475 226.442 16.225L224.462 19.285C223.922 18.775 223.292 18.385 222.572 18.115C221.852 17.815 221.192 17.65 220.592 17.62C219.782 17.59 219.092 17.755 218.522 18.115C217.982 18.475 217.712 18.94 217.712 19.51C217.712 20.11 217.922 20.59 218.342 20.95C218.792 21.31 219.362 21.595 220.052 21.805C220.742 22.015 221.432 22.24 222.122 22.48C223.502 22.93 224.627 23.575 225.497 24.415C226.397 25.225 226.847 26.365 226.847 27.835C226.847 29.005 226.562 30.085 225.992 31.075C225.452 32.065 224.597 32.875 223.427 33.505C222.287 34.105 220.847 34.405 219.107 34.405Z" fill="#FE9E0D"/>
</svg>
